<svg xmlns="http://www.w3.org/2000/svg" width="128" height="128" viewBox="0 0 128 128" fill="none" role="img" aria-label="Divit">
  <rect width="128" height="128" rx="28" fill="#F2F5F4"/>
  <path d="M40 74 h48 a6 6 0 0 1 6 6 l-5 26 a10 10 0 0 1 -10 8 H49 a10 10 0 0 1 -10 -8 l-5 -26 a6 6 0 0 1 6 -6 Z" fill="#17414E"/>
  <g stroke="#17414E" stroke-width="6.5" stroke-linecap="round"><path d="M50 66 V52"/><path d="M64 66 V34"/><path d="M78 66 V46"/></g>
  <path d="M104 22 L74 60" stroke="#C6963F" stroke-width="7" stroke-linecap="round"/>
  <path d="M104 22 l6 -6 6 8 -8 6 z" fill="#C6963F"/>
  <circle cx="74" cy="60" r="6.5" fill="#C6963F"/>
</svg>
